<svg version="1" xmlns="http://www.w3.org/2000/svg" width="2000" height="2000" viewBox="0 0 1500.000000 1500.000000"><path d="M442.7 53.9c1.5 2 4.8 6.1 7.3 9.1 2.5 3.1 5.9 7.3 7.5 9.4 3.5 4.5 47.3 59.4 51.5 64.6 1.6 1.9 18.6 23.3 37.9 47.5 19.3 24.2 38.7 48.5 43.1 54 4.4 5.5 12.1 15.2 17.1 21.5 5.1 6.3 10.5 13.1 12 15 1.6 1.9 20.4 25.5 41.9 52.5 21.5 26.9 40.5 50.7 42.1 52.7 1.7 2.1 8.9 11.1 16 20 7.1 9 13.5 17 14.2 17.8.7.8 8.2 10.3 16.7 21s15.7 19.7 16 20c.3.3 3 3.6 6 7.5 6.5 8.3 8.2 10.3 9.5 11.9.6.6 2.6 3.1 4.5 5.6 1.9 2.5 3.9 5 4.5 5.7.5.7 1.5 1.8 2 2.5.6.7 11.8 14.7 24.8 31.1l23.8 29.8-.5 9.7c-.4 5.3-.8 12.2-1.1 15.2-.2 3-.7 9.5-1 14.5-.6 8.9-1 15.5-2 29-.2 3.8-.7 10.8-1 15.5-.3 4.7-.8 11.6-1.1 15.3-.3 3.7-.7 9.8-.9 13.5-.4 7.4-1 16.7-3 44.2-.4 6.4-1.1 15.8-2 29.5-.4 6.6-.9 14.3-2 29.5-.2 3.6-.7 9.9-1 14-.3 4.1-.8 11.1-1 15.5-.3 4.4-.7 10.9-1 14.6-.3 3.6-.8 10.1-1 14.4-.2 4.4-.7 11.6-1 16-.9 10.7-1.3 17.1-2 28.5-.3 5.2-.8 12-1 15-.2 3-.7 9.8-1 15-.3 5.2-.8 12-1.1 15-.2 3-.7 9.5-.9 14.5-.3 4.9-.8 11-1 13.5-.2 2.5-.7 9.4-1 15.5-.4 6-.8 12.8-1 15-.3 2.2-.7 8.9-1.1 15-.4 6-.8 12.1-.9 13.5-.2 1.4-.3 3.2-.4 4-.1 1.3-40.8 1.5-360.1 1.5-198 0-360 .2-360 .5 0 .4 193.9 124 200.8 128 1.4.8 3.1 1.9 3.7 2.3 1.2.9 9.2 6.1 26.7 17.1 17.9 11.4 57.6 36.6 61.8 39.3 1.9 1.3 4 2.7 4.7 3.3.7.5 1.5 1 1.8 1 .3 0 3.2 1.7 6.3 3.7 3.2 2.1 6.5 4.2 7.3 4.8.9.5 2.7 1.7 4 2.6 1.3.9 14.3 9.2 28.9 18.4 14.6 9.2 28.8 18.2 31.5 20 5.7 3.7 17.9 11.5 31 19.8 5 3.1 20.3 12.9 34 21.6 23.1 14.7 41 26.1 84.5 53.7 20.4 13 30.1 19.2 40.7 26.1 4.6 2.9 8.6 5.3 8.9 5.3.3 0 1.9 1 3.4 2.2 1.6 1.3 5.8 4.1 9.5 6.3 3.6 2.2 9.4 5.8 12.8 8 18.7 12.2 85.8 54.6 86.9 55 1.1.4 16.3-25.8 38.6-66.9 1.8-3.4 3.9-7 4.6-8.1 1.2-1.8 3.7-6.4 12.6-22.7 4-7.4 28.4-51.1 29.7-53.3.7-1.1 1.5-2.7 1.9-3.5.4-.8 8.4-15.2 17.7-32 9.4-16.8 17.8-32.1 18.9-34 1-1.9 2.3-4.2 2.8-5 1.5-2.4 13.5-24 16.9-30.5 1.8-3.3 4-7.4 5-9 2.2-3.8 4.5-7.9 16.1-29 5.1-9.4 10.2-18.2 11.2-19.7 1.1-1.6 1.6-2.8 1.2-2.8-.4 0 0-.8.8-1.8.8-.9 3.1-4.6 5-8.2 1.9-3.6 4.4-8.1 5.5-10 1.1-1.9 5.1-9.1 8.9-16 3.8-6.9 7.4-13.4 8.1-14.5.7-1.1 1.6-2.7 2-3.5.5-1.2 79.3-143 90.7-163.5 1.6-2.8 4.4-7.9 6.4-11.5 1.9-3.6 4.9-9 6.7-12 1.7-3 4.8-8.4 6.7-12 2-3.6 5.3-9.7 7.4-13.5 2.1-3.9 5.1-9.2 6.7-12 1.6-2.7 4.5-7.9 6.5-11.5 2.9-5.3 46.3-83.5 55.5-100 12.2-22 37.2-66.9 40.2-72.5 2.1-3.9 4.6-8.4 5.6-10 1-1.7 3.4-6.2 5.5-10 2-3.9 4-7.5 4.4-8 .4-.6 6.5-11.4 13.5-24 7-12.7 13.9-25 15.2-27.5 1.4-2.5 4.4-7.9 6.6-12 2.2-4.1 4.4-8 4.9-8.6.4-.6 1.9-3.1 3.2-5.5 1.3-2.4 3.3-6.1 4.4-8.1 1.2-2.1 3.8-6.8 5.8-10.5 2.1-3.7 11.4-20.5 20.7-37.3 9.4-16.8 19.4-34.8 22.2-40 2.9-5.2 7.4-13.3 10-18 2.6-4.7 6-10.8 7.5-13.5 1.5-2.8 4.9-8.8 7.5-13.5 2.6-4.7 5.7-10.3 7-12.5 1.2-2.2 5.4-9.8 9.3-16.8 4-7 7.2-13 7.2-13.2 0-.3 1.8-3.4 4-7s4-6.7 4-6.9c0-.2 4-7.5 8.8-16.2 4.9-8.8 10.4-18.6 12.2-21.9 1.8-3.3 4.1-7.5 5.2-9.3 1.1-1.8 1.8-3.5 1.6-3.7-.2-.2-2.8-1.1-5.8-1.9-7.4-2-23.4-6.4-29.5-8-2.7-.8-7.5-2.1-10.6-3-3.1-.9-6.5-1.9-7.5-2.1-1.1-.2-7.7-2-14.9-4-7.1-2-13.7-3.8-14.5-4-15.8-4.2-91-24.7-95.5-26-5.1-1.5-17.9-5-56.5-15.5-5.8-1.5-13-3.5-16-4.3-3-.9-12.2-3.4-20.5-5.6-8.2-2.3-16.6-4.6-18.5-5.1-1.9-.6-16.5-4.6-32.5-8.9-34.5-9.3-28.5-7.7-53.5-14.6-35.2-9.7-49-13.4-51-13.9-.8-.2-23.1-6.3-49.5-13.6-26.4-7.2-51.4-14-55.5-15.1-4.1-1.1-12.2-3.3-18-4.9-19.5-5.4-39.4-10.8-49.5-13.5-5.5-1.4-11.1-3-12.5-3.5-1.4-.4-6.3-1.8-11-3s-10.5-2.8-13-3.5c-2.5-.7-8.8-2.5-14-3.9-5.2-1.5-35.1-9.6-66.5-18.2-31.3-8.5-57.9-15.7-59-16-1.1-.2-4.9-1.2-8.5-2.3-3.6-1-15-4.2-25.5-7-10.4-2.8-20.3-5.5-22-6-1.6-.5-7.3-2.1-12.5-3.5s-20.3-5.6-33.5-9.2c-13.2-3.6-27.1-7.4-31-8.4-3.8-1-16.2-4.4-27.5-7.5-11.3-3.1-23.6-6.5-27.3-7.5l-6.8-1.8 2.8 3.7z"/></svg>