<?xml version="1.0" encoding="UTF-8"?>
<svg width="60px" height="60px" viewBox="0 0 60 60" version="1.1" xmlns="http://www.w3.org/2000/svg" xmlns:xlink="http://www.w3.org/1999/xlink">
    <!-- Generator: Sketch 43.1 (39012) - http://www.bohemiancoding.com/sketch -->
    <title>Channel</title>
    <desc>Created with Sketch.</desc>
    <defs></defs>
    <g id="Symbols" stroke="none" stroke-width="1" fill="none" fill-rule="evenodd" stroke-linecap="round" stroke-linejoin="round">
        <g id="Channel" stroke="#626B74">
            <path d="M30.0003635,26 C32.2007633,26 34.0010904,27.8 34.0010904,30 C34.0010904,32.2 32.2007633,34 30.0003635,34 C27.7999637,34 25.9996365,32.2 25.9996365,30 C25.9996365,27.8 27.7999637,26 30.0003635,26 Z M22.522457,40.8979262 C22.010364,40.8979262 21.4982709,40.6925555 21.1061997,40.2860055 C18.4577185,37.5197886 17.0054546,33.8314994 17.0054546,29.9126921 C17.0014539,25.9896936 18.4577185,22.3139781 21.1061997,19.5393787 C21.8863414,18.7220873 23.1545719,18.7220873 23.9347136,19.5393787 C24.7068539,20.3482876 24.7068539,21.6852924 23.9347136,22.5025838 C22.0383691,24.4850392 21.0061815,27.1129453 21.0061815,29.9126921 C21.0061815,32.7082476 22.0463705,35.3403449 23.9347136,37.3228004 C24.7068539,38.1400917 24.7068539,39.4770966 23.9347136,40.2860055 C23.5466431,40.6925555 23.0345501,40.8979262 22.522457,40.8979262 L22.522457,40.8979262 Z M37.4935407,40.8979262 C36.9814476,40.8979262 36.4693546,40.6925555 36.0772833,40.2860055 C35.2971416,39.4770966 35.2971416,38.1400917 36.0772833,37.3228004 C37.9696272,35.3403449 38.997814,32.7124389 38.997814,29.9126921 C38.997814,27.1171365 37.9496235,24.4850392 36.0772833,22.5025838 C35.2971416,21.6852924 35.2971416,20.3482876 36.0772833,19.5393787 C36.8494236,18.7220873 38.1256555,18.7220873 38.9057973,19.5393787 C41.5422763,22.3014043 42.9985409,25.9896936 42.9985409,29.9126921 C43.0025416,33.8356906 41.5422763,37.5114061 38.9057973,40.2860055 C38.5177268,40.6925555 38.0056337,40.8979262 37.4935407,40.8979262 L37.4935407,40.8979262 Z M15.8654291,46.8243363 C15.3533361,46.8243363 14.841243,46.6189657 14.4491718,46.2124156 C10.2924165,41.8535284 8.00400073,36.0654291 8,29.9126921 C8,23.7557638 10.2844151,17.9676645 14.4491718,13.6129685 C15.2293136,12.7956772 16.497544,12.7956772 17.2776857,13.6129685 C18.0578275,14.4302599 18.0578275,15.7588822 17.2776857,16.5761736 C13.8690664,20.1429169 12.0007269,24.8664418 12.0007269,29.9126921 C12.0007269,34.9589423 13.8770679,39.6866585 17.2776857,43.2492105 C18.0578275,44.0665019 18.0578275,45.3951243 17.2776857,46.2124156 C16.8896152,46.6189657 16.3775222,46.8243363 15.8654291,46.8243363 L15.8654291,46.8243363 Z M44.1505685,46.8243363 C43.6384755,46.8243363 43.1263824,46.6189657 42.7343112,46.2124156 C41.9541695,45.3951243 41.9541695,44.0665019 42.7343112,43.2492105 C46.1389298,39.6824672 47.9992678,34.9547511 47.9992678,29.9126921 C47.9992678,24.8706331 46.1229269,20.1387257 42.7343112,16.5761736 C41.9541695,15.7588822 41.9541695,14.4302599 42.7343112,13.6129685 C43.5064515,12.7956772 44.7826834,12.7956772 45.5628251,13.6129685 C49.711579,17.9634733 51.9999948,23.7557638 51.9999948,29.9126921 C52.0039955,36.0696203 49.711579,41.8577196 45.5628251,46.2124156 C45.1747546,46.6189657 44.6626616,46.8243363 44.1505685,46.8243363 L44.1505685,46.8243363 Z" id="Combined-Shape"></path>
        </g>
    </g>
</svg>