<?xml version="1.0" encoding="UTF-8"?>
<svg width="38px" height="38px" viewBox="0 0 38 38" version="1.1" xmlns="http://www.w3.org/2000/svg" xmlns:xlink="http://www.w3.org/1999/xlink">
    <!-- Generator: Sketch 43.1 (39012) - http://www.bohemiancoding.com/sketch -->
    <title>Github_Color</title>
    <desc>Created with Sketch.</desc>
    <defs></defs>
    <g id="Symbols" stroke="none" stroke-width="1" fill="none" fill-rule="evenodd">
        <g id="Github" transform="translate(-21.000000, -21.000000)">
            <circle id="Oval-2" stroke="#ECECEC" cx="40" cy="40" r="40"></circle>
            <g transform="translate(21.000000, 21.000000)" fill="#151513">
                <path d="M19.0001573,0 C8.5080356,0 0,8.57638765 0,19.1563433 C0,27.6201175 5.44412337,34.8007326 12.9934672,37.3337425 C13.9430346,37.5110691 14.2916498,36.918183 14.2916498,36.4122154 C14.2916498,35.9554171 14.2740302,34.4463967 14.2658497,32.8456994 C8.97998758,34.0045078 7.86460774,30.5854996 7.86460774,30.5854996 C7.00030635,28.3712969 5.75498241,27.7825346 5.75498241,27.7825346 C4.03109915,26.5935902 5.88492652,26.6180163 5.88492652,26.6180163 C7.79287104,26.7531524 8.79749948,28.5920827 8.79749948,28.5920827 C10.4921217,31.5206672 13.2423432,30.6740043 14.3265742,30.1845323 C14.4971062,28.9464186 14.9895094,28.1013418 15.5328835,27.6229725 C11.3126889,27.138576 6.8763403,25.4960055 6.8763403,18.1558282 C6.8763403,16.06439 7.61856344,14.3555203 8.8339971,13.0139926 C8.63672118,12.5314994 7.98637135,10.5831279 9.01805837,7.94448337 C9.01805837,7.94448337 10.6135707,7.42963364 14.2444546,9.90808151 C15.7600497,9.48363978 17.3854523,9.27078447 19.0001573,9.26348839 C20.6148623,9.27078447 22.2415235,9.48363978 23.7599503,9.90808151 C27.3864293,7.42963364 28.9797392,7.94448337 28.9797392,7.94448337 C30.0139433,10.5831279 29.3632788,12.5314994 29.1660029,13.0139926 C30.3842683,14.3555203 31.1214573,16.06439 31.1214573,18.1558282 C31.1214573,25.5134526 26.6766135,27.1335004 22.4457214,27.6077459 C23.12722,28.2022181 23.7344649,29.3680053 23.7344649,31.1552286 C23.7344649,33.7183745 23.7124405,35.7812628 23.7124405,36.4122154 C23.7124405,36.9219896 24.0544484,37.5193168 25.017545,37.3312047 C32.5627986,34.7953399 38,27.6172625 38,19.1563433 C38,8.57638765 29.4932229,0 19.0001573,0" id="Fill-4"></path>
                <path d="M7.25234711,27.3728778 C7.21057851,27.4671057 7.06234711,27.495374 6.92730579,27.4306709 C6.78975207,27.3687946 6.71249587,27.2403306 6.75709091,27.1457887 C6.79791736,27.048734 6.94646281,27.021722 7.08370248,27.0867392 C7.22157025,27.1486155 7.30008264,27.2783359 7.25234711,27.3728778" id="Fill-5"></path>
                <path d="M8.0205124,28.2297231 C7.93006612,28.3135859 7.7532562,28.2746384 7.63328926,28.1420912 C7.50923967,28.0098581 7.486,27.8330238 7.57770248,27.7479047 C7.67097521,27.6640419 7.84244628,27.7033035 7.96680992,27.8355366 C8.0908595,27.9693401 8.11504132,28.144918 8.0205124,28.2297231" id="Fill-6"></path>
                <path d="M8.76826446,29.322138 C8.65206612,29.4028599 8.46206612,29.3271635 8.34461157,29.1584957 C8.22841322,28.9898278 8.22841322,28.787552 8.34712397,28.706516 C8.46489256,28.6254801 8.65206612,28.6983496 8.77109091,28.8657611 C8.88697521,29.0372558 8.88697521,29.2395316 8.76826446,29.322138" id="Fill-7"></path>
                <path d="M9.79269421,30.37749 C9.6887438,30.4921339 9.46733884,30.4613528 9.30528926,30.3049346 C9.13947107,30.1519713 9.09330579,29.9349332 9.19757025,29.8202893 C9.30277686,29.7053313 9.52543802,29.7376829 9.6887438,29.8928447 C9.85330579,30.0454939 9.90355372,30.2641025 9.79269421,30.37749" id="Fill-8"></path>
                <path d="M11.2059174,30.9902852 C11.1600661,31.1388511 10.9468264,31.206381 10.7320165,31.1432484 C10.5175207,31.0782312 10.3771405,30.9042237 10.4204793,30.7540873 C10.4650744,30.6045791 10.6792562,30.5342223 10.8956364,30.6017523 C11.1098182,30.6664554 11.2505124,30.8392065 11.2059174,30.9902852" id="Fill-9"></path>
                <path d="M12.7579504,31.1039868 C12.7632893,31.260405 12.5811405,31.3901254 12.3556529,31.3929522 C12.1289091,31.3979777 11.9455041,31.2713983 11.9429917,31.1174928 C11.9429917,30.9595041 12.1210579,30.8310401 12.3478017,30.827271 C12.5732893,30.8228737 12.7579504,30.9485108 12.7579504,31.1039868" id="Fill-10"></path>
                <path d="M14.2022645,30.8580521 C14.2292727,31.0107012 14.072562,31.1674335 13.8486446,31.2092079 C13.6284959,31.2494118 13.4246777,31.1551839 13.3967273,31.0037912 C13.369405,30.8473729 13.5289421,30.6906406 13.7487769,30.6501226 C13.9730083,30.6111751 14.173686,30.7028902 14.2022645,30.8580521" id="Fill-11"></path>
            </g>
        </g>
    </g>
</svg>