<?xml version="1.0" encoding="UTF-8"?>
<svg width="60px" height="60px" viewBox="0 0 60 60" version="1.1" xmlns="http://www.w3.org/2000/svg" xmlns:xlink="http://www.w3.org/1999/xlink">
    <!-- Generator: Sketch 43.1 (39012) - http://www.bohemiancoding.com/sketch -->
    <title>Group</title>
    <desc>Created with Sketch.</desc>
    <defs></defs>
    <g id="Symbols" stroke="none" stroke-width="1" fill="none" fill-rule="evenodd" stroke-linecap="round" stroke-linejoin="round">
        <g id="Group" stroke="#626B74">
            <path d="M26.0232173,36.0660721 C29.5322571,34.800671 33.5317476,34.1674877 36.2660099,34.1674877 C42.1776355,34.1674877 54,37.1264039 54,43.0344828 L54,43.0344828 L54,47.4679803 L35,47.4679803" id="Combined-Shape"></path>
            <path d="M36.2660099,29.7339901 C41.1614778,29.7339901 45.1330049,25.7589163 45.1330049,20.8669951 C45.1330049,15.9724138 41.1614778,12 36.2660099,12 C31.3714286,12 27.3990148,15.9724138 27.3990148,20.8669951 C27.3990148,25.7589163 31.3714286,29.7339901 36.2660099,29.7339901" id="Fill-7-Copy-2"></path>
            <path d="M18.4137931,38.1576355 C14.2762759,38.1576355 6,40.2288768 6,44.364532 L6,47.4679803 L30.8275862,47.4679803 L30.8275862,44.364532 C30.8275862,40.2288768 22.551931,38.1576355 18.4137931,38.1576355 L18.4137931,38.1576355 Z" id="Path"></path>
            <path d="M18.4137931,35.0541872 C21.8406207,35.0541872 24.6206897,32.2716355 24.6206897,28.8472906 C24.6206897,25.4210837 21.8406207,22.6403941 18.4137931,22.6403941 C14.9875862,22.6403941 12.2068966,25.4210837 12.2068966,28.8472906 C12.2068966,32.2716355 14.9875862,35.0541872 18.4137931,35.0541872 L18.4137931,35.0541872 Z" id="Path"></path>
        </g>
    </g>
</svg>