<?xml version="1.0" encoding="UTF-8"?>
<svg width="60px" height="60px" viewBox="0 0 60 60" version="1.1" xmlns="http://www.w3.org/2000/svg" xmlns:xlink="http://www.w3.org/1999/xlink">
    <!-- Generator: Sketch 43.1 (39012) - http://www.bohemiancoding.com/sketch -->
    <title>Inbox</title>
    <desc>Created with Sketch.</desc>
    <defs></defs>
    <g id="Symbols" stroke="none" stroke-width="1" fill="none" fill-rule="evenodd" stroke-linecap="round" stroke-linejoin="round">
        <g id="Inbox" stroke="#626B74">
            <path d="M36.7217419,31.8154216 L36.3436234,30.8518293 L36.2522619,33.2419541 C36.1239008,36.6000357 33.3675995,39.2642692 30.0004124,39.2642692 C26.6335395,39.2642692 23.8768906,36.5999259 23.7481483,33.2418972 L23.6589741,30.9159361 L23.2894282,31.8282525 C23.2381393,31.7670056 23.182781,31.7104588 23.1235407,31.6586132 C22.8674631,31.4345003 22.6028879,31.3425566 22.39488,31.3251497 L15.2944573,31.3234081 C14.5031654,31.3234081 14.2266647,31.1083759 14.1716717,30.7233481 C14.1467096,30.5485783 14.1695476,30.3431416 14.2251318,30.1393908 C14.2489505,30.0520805 14.2716712,29.988985 14.283374,29.9616857 L17.8355653,16.9553805 C17.8602627,16.8569957 17.9279165,16.6945128 18.0473296,16.5351838 C18.2339805,16.2861413 18.4776285,16.1468162 18.8234081,16.1468162 L41.4706368,16.1468162 C41.8194727,16.1468162 42.0640082,16.2836816 42.2500435,16.5267979 C42.3681867,16.6811909 42.434897,16.83826 42.4563042,16.9223833 L45.691579,29.8371064 C45.7273727,29.9373509 45.7503755,30.0027839 45.7744456,30.0931626 C45.8307277,30.3044922 45.8538783,30.5178574 45.8284097,30.7004242 C45.7723345,31.1023884 45.4948382,31.3234081 44.7063675,31.3234081 L37.6472286,31.3234081 C37.397347,31.3426606 37.1327916,31.4346575 36.8767028,31.6587352 C36.8216481,31.706908 36.7699443,31.7591372 36.7217419,31.8154216 Z M16.765094,12.5 C15.6964869,12.5 14.5823312,13.2618433 14.23168,14.3123233 L9.5186064,31.1001881 L9.5,31.2353184 L9.5,46.2344936 C9.5,47.3230239 10.3824185,48.2059551 11.4706368,48.2059551 L48.5289508,48.2059551 C49.6173252,48.2059551 50.5,47.3232803 50.5,46.2344936 L50.5,31.2353184 L50.4813905,31.1001771 L45.775023,14.3354955 C45.4177471,13.261842 44.3038985,12.5 43.234906,12.5 L16.765094,12.5 Z" id="Shape"></path>
        </g>
    </g>
</svg>