<?xml version="1.0" encoding="UTF-8"?>
<svg width="38px" height="38px" viewBox="0 0 38 38" version="1.1" xmlns="http://www.w3.org/2000/svg" xmlns:xlink="http://www.w3.org/1999/xlink">
    <!-- Generator: Sketch 43.1 (39012) - http://www.bohemiancoding.com/sketch -->
    <title>Group</title>
    <desc>Created with Sketch.</desc>
    <defs></defs>
    <g id="Symbols" stroke="none" stroke-width="1" fill="none" fill-rule="evenodd">
        <g id="Medium" transform="translate(-21.000000, -21.000000)">
            <circle id="Oval-2" stroke="#ECECEC" cx="40" cy="40" r="40"></circle>
            <g id="Group" transform="translate(25.000000, 27.000000)">
                <path d="M20.2768805,0.0296126782 C20.1245601,-0.0470965444 20,0.0304442145 20,0.201948574 L20,21.2934507 L29.1693584,25.9111796 C29.6262164,26.1413073 30,25.9085811 30,25.394068 L30,5.091278 C30,4.9901424 29.943241,4.89763399 29.8534587,4.85241921 L20.2768805,0.0296126782" id="Fill-6" fill="#32FC8D"></path>
                <path d="M10,16.0343777 L19.8849292,0.158037503 C19.9746234,0.0140425517 20.1731951,-0.0419156287 20.3262457,0.0337201536 L29.8746918,4.75245008 C29.9936274,4.81117543 30.0360377,4.95814252 29.9663562,5.07005888 L20.0479342,21 L10,16.0343777" id="Fill-7" fill="#0BE370"></path>
                <path d="M0.649113667,0.136838668 C0.0251540779,-0.170153051 -0.186250154,0.0570478685 0.179373465,0.641798952 L9.75735928,15.9596558 L20,21 L9.8235288,4.72486163 C9.78029664,4.65557783 9.7181438,4.59971387 9.64436372,4.56330346 L0.649113667,0.136838668" id="Fill-9" fill="#14C767"></path>
                <path d="M10,25.3914985 C10,25.9081934 9.62611711,26.1419065 9.16926379,25.910803 L0.553858537,21.553551 C0.249220862,21.399482 0,20.9916583 0,20.647195 L0,0.40569657 C0,0.0612332724 0.249220862,-0.0946102742 0.553858537,0.0594587645 L9.87667953,4.77453502 C9.95221977,4.81273913 10,4.89081748 10,4.976307 L10,25.3914985" id="Fill-10" fill="#00AB6C"></path>
            </g>
        </g>
    </g>
</svg>