<?xml version="1.0" encoding="UTF-8"?>
<svg width="60px" height="60px" viewBox="0 0 60 60" version="1.1" xmlns="http://www.w3.org/2000/svg" xmlns:xlink="http://www.w3.org/1999/xlink">
    <!-- Generator: Sketch 43.1 (39012) - http://www.bohemiancoding.com/sketch -->
    <title>Search</title>
    <desc>Created with Sketch.</desc>
    <defs></defs>
    <g id="Symbols" stroke="none" stroke-width="1" fill="none" fill-rule="evenodd" stroke-linecap="round" stroke-linejoin="round">
        <g id="Search" stroke="#626B74">
            <path d="M42.6451655,37.1346483 C44.169107,34.6201947 44.9896094,31.7391359 44.9896094,28.7434465 C44.9896094,19.7863105 37.702431,12.5 28.7448047,12.5 C19.7867304,12.5 12.5,19.7860795 12.5,28.7434465 C12.5,37.7015067 19.7867445,44.9882512 28.7448047,44.9882512 C31.7400558,44.9882512 34.6204763,44.167993 37.1352548,42.6444455 L42.8430044,48.3521951 L43.1964828,48.7056735 L43.5500362,48.3522701 L48.3534784,43.5508653 L48.7071617,43.197332 L48.3535734,42.8437036 L42.6451655,37.1346483 Z M28.7448047,37.1970138 C24.0837175,37.1970138 20.2912374,33.4045336 20.2912374,28.7434465 C20.2912374,24.0835189 24.0839161,20.2912374 28.7448047,20.2912374 C33.4056933,20.2912374 37.198372,24.0835189 37.198372,28.7434465 C37.198372,33.4045336 33.4058919,37.1970138 28.7448047,37.1970138 Z" id="Fill-1"></path>
        </g>
    </g>
</svg>