<?xml version="1.0" encoding="UTF-8"?>
<svg width="38px" height="38px" viewBox="0 0 38 38" version="1.1" xmlns="http://www.w3.org/2000/svg" xmlns:xlink="http://www.w3.org/1999/xlink">
    <!-- Generator: Sketch 43.1 (39012) - http://www.bohemiancoding.com/sketch -->
    <title>twiittet</title>
    <desc>Created with Sketch.</desc>
    <defs></defs>
    <g id="Symbols" stroke="none" stroke-width="1" fill="none" fill-rule="evenodd">
        <g id="Twitter" transform="translate(-21.000000, -22.000000)">
            <circle id="Oval-2" stroke="#ECECEC" cx="40" cy="40" r="40"></circle>
            <path d="M40.1015033,35.3843758 L40.1644564,36.4224435 L39.1152374,36.2953331 C35.2960803,35.8080769 31.9595639,34.1556426 29.1266726,31.3804004 L27.7417035,30.0033719 L27.3849691,31.0202545 C26.6295314,33.2870554 27.1121721,35.6809665 28.6860006,37.2910307 C29.5253758,38.180803 29.3365164,38.3079133 27.8885942,37.778287 C27.3849691,37.6088065 26.9442971,37.4816962 26.9023283,37.5452514 C26.7554377,37.6935467 27.2590628,39.6213867 27.657766,40.3840487 C28.2033599,41.4433014 29.315532,42.4813691 30.5326261,43.0957357 L31.5608607,43.582992 L30.3437666,43.604177 C29.1686414,43.604177 29.1266726,43.6253621 29.2525789,44.0702482 C29.6722665,45.4472768 31.3300325,46.9090455 33.1766579,47.5445972 L34.4776895,47.9894833 L33.344533,48.6674051 C31.6657826,49.6419176 29.6932509,50.192729 27.7207192,50.2350991 C26.7764221,50.2562842 26,50.3410244 26,50.4045796 C26,50.6164301 28.5600943,51.8027932 30.0499853,52.2688644 C34.5196582,53.645893 39.8287063,53.0527114 43.8157385,50.7011703 C46.6486298,49.027551 49.4815211,45.7014974 50.803537,42.4813691 C51.5170059,40.7653797 52.2304749,37.6299916 52.2304749,36.1258527 C52.2304749,35.1513402 52.293428,35.0242299 53.4685533,33.8590518 C54.1610378,33.1811301 54.8115536,32.4396532 54.9374599,32.2278026 C55.1473037,31.8252866 55.1263193,31.8252866 54.0561159,32.1854325 C52.2724436,32.8209842 52.0206311,32.7362439 52.901975,31.7829165 C53.5524908,31.1049947 54.3289128,29.8762616 54.3289128,29.5161156 C54.3289128,29.4525605 54.0141471,29.5584857 53.6574127,29.7491512 C53.2796938,29.9610018 52.4403186,30.2787776 51.8107873,30.4694431 L50.6776307,30.829589 L49.6493961,30.1304822 C49.0828179,29.7491512 48.2854114,29.3254501 47.8657238,29.1983398 C46.7955205,28.901749 45.1587388,28.9441191 44.1934574,29.28308 C41.5704099,30.2364075 39.9126439,32.6938738 40.1015033,35.3843758 Z" id="twiittet" fill="#55ACEE"></path>
        </g>
    </g>
</svg>